<svg id="Bahan_copy" data-name="Bahan copy" xmlns="http://www.w3.org/2000/svg" viewBox="0 0 64 64"><defs><style>.cls-1{fill:red;}</style></defs><path class="cls-1" d="M60,17.19238a4.27713,4.27713,0,0,0-4.45264-4.06494H8.45264A4.27713,4.27713,0,0,0,4,17.19238V46.80762a3.87538,3.87538,0,0,0,1.27222,2.83593,4.6385,4.6385,0,0,0,3.18042,1.229H55.54736A4.28646,4.28646,0,0,0,60,46.80762ZM40.45807,32.20953,57.85925,16.53076c.08466.20886.07813,30.77564-.0235,31.00208ZM56.30573,15.23877l-23.399,21.08252a1.42136,1.42136,0,0,1-1.81494-.001L7.69427,15.23877C7.93457,15.17242,56.06549,15.17242,56.30573,15.23877ZM6.16431,47.53284c-.10163-.22644-.10816-30.79322-.0235-31.00208l17.40094,15.6789ZM7.7724,48.78168,25.0376,33.55743l4.71484,4.24823a3.42687,3.42687,0,0,0,4.49365.001l4.71613-4.24933L56.2276,48.78168C56.01019,48.835,7.98987,48.835,7.7724,48.78168Z"/></svg>