<svg id="Layer_1" data-name="Layer 1" xmlns="http://www.w3.org/2000/svg" viewBox="0 0 110 110" fill="cyan"><path d="M94.05,86.749H15.95A6.587,6.587,0,0,1,9.37,80.17V42.68a6.588,6.588,0,0,1,6.58-6.58H27.11a1,1,0,0,1,1,1V59.18a2.783,2.783,0,0,0,2.78,2.78H79.12a2.783,2.783,0,0,0,2.78-2.78V37.1a1,1,0,0,1,1-1H94.05a6.588,6.588,0,0,1,6.58,6.58V80.17A6.587,6.587,0,0,1,94.05,86.749ZM15.95,38.1a4.585,4.585,0,0,0-4.58,4.58V80.17a4.584,4.584,0,0,0,4.58,4.579h78.1a4.584,4.584,0,0,0,4.58-4.579V42.68a4.585,4.585,0,0,0-4.58-4.58H83.9V59.18a4.786,4.786,0,0,1-4.78,4.78H30.89a4.785,4.785,0,0,1-4.78-4.78V38.1Z"/><path d="M100.63,74.02v6.15a6.585,6.585,0,0,1-6.58,6.58H15.95a6.585,6.585,0,0,1-6.58-6.58V74.03a1.022,1.022,0,0,1,1.01-1.01H99.63A1,1,0,0,1,100.63,74.02Z"/><path d="M64.92,102.6a1,1,0,0,1-.79.4H45.88a1,1,0,0,1-.79-.4,1,1,0,0,1-.17-.87l3.6-12.98H61.48l3.61,12.98A1,1,0,0,1,64.92,102.6Z"/><path d="M70.154,103h-30.3a1,1,0,0,1,0-2h30.3a1,1,0,0,1,0,2Z"/><path d="M82.89,24.07H27.11a2.772,2.772,0,0,1-1-.18v35.3a4.778,4.778,0,0,0,4.78,4.77H79.12a4.784,4.784,0,0,0,4.78-4.77V23.89A2.826,2.826,0,0,1,82.89,24.07ZM56.27,52.933a2.663,2.663,0,0,1-2.661,2.661h-16.2a2.663,2.663,0,0,1-2.661-2.661V31.094a2.664,2.664,0,0,1,2.661-2.662h16.2a2.664,2.664,0,0,1,2.661,2.662Zm17.989,2.661H61.386a1,1,0,0,1,0-2H74.259a1,1,0,0,1,0,2Zm0-6.29H61.386a1,1,0,1,1,0-2H74.259a1,1,0,0,1,0,2Zm0-6.291H61.386a1,1,0,0,1,0-2H74.259a1,1,0,0,1,0,2Zm0-6.29H61.386a1,1,0,0,1,0-2H74.259a1,1,0,0,1,0,2Zm0-6.291H61.386a1,1,0,0,1,0-2H74.259a1,1,0,0,1,0,2Z"/><path d="M37.407,30.432h16.2a.661.661,0,0,1,.661.661v21.84a.661.661,0,0,1-.661.661h-16.2a.661.661,0,0,1-.661-.661V31.094A.662.662,0,0,1,37.407,30.432Z"/><path d="M79.12,7H30.89a4.784,4.784,0,0,0-4.78,4.77v9.3a1,1,0,0,0,1,1H82.89a1,1,0,0,0,1-1v-9.3A4.776,4.776,0,0,0,79.12,7ZM45.227,15.531H34.069a1,1,0,0,1,0-2H45.227a1,1,0,0,1,0,2Zm22.244,0h-.8a1,1,0,0,1,0-2h.8a1,1,0,0,1,0,2Zm4.233,0h-.8a1,1,0,0,1,0-2h.8a1,1,0,0,1,0,2Zm4.233,0h-.8a1,1,0,0,1,0-2h.8a1,1,0,0,1,0,2Z"/></svg>