<?xml version="1.0" encoding="utf-8"?>
<!-- Generator: Adobe Illustrator 23.0.2, SVG Export Plug-In . SVG Version: 6.00 Build 0)  -->
<svg version="1.1" id="Layer_1" xmlns="http://www.w3.org/2000/svg" xmlns:xlink="http://www.w3.org/1999/xlink" x="0px" y="0px"
	 viewBox="0 0 492 492" style="enable-background:new 0 0 492 492;" xml:space="preserve" fill="gold">
<g>
	<g>
		<path d="M349.72,468.5H39.27c-3.18,0-5.76-2.58-5.76-5.76V81.76c0-3.18,2.58-5.76,5.76-5.76h77.61c3.18,0,5.76,2.58,5.76,5.76
			v32.66c0,3.63,2.95,6.59,6.59,6.59h130.52c3.63,0,6.59-2.96,6.59-6.59V81.76c0-3.18,2.58-5.76,5.76-5.76h77.61
			c3.18,0,5.76,2.58,5.76,5.76v166.52c0,1.01-0.27,2-0.77,2.88l-49.62,85.94l20.93,12.08l18.71-32.41c1.3-2.26,3.96-3.36,6.48-2.68
			c2.52,0.67,4.27,2.96,4.27,5.56v143.1C355.48,465.92,352.9,468.5,349.72,468.5z M45.03,456.98h298.92V341.14l-10.85,18.79
			c-0.76,1.32-2.02,2.29-3.5,2.68c-1.48,0.4-3.05,0.19-4.37-0.58l-30.9-17.84c-1.32-0.76-2.29-2.02-2.68-3.5s-0.19-3.05,0.58-4.37
			l51.73-89.59V87.52h-66.09v26.9c0,9.98-8.12,18.11-18.11,18.11H129.24c-9.98,0-18.11-8.12-18.11-18.11v-26.9H45.03V456.98z"/>
	</g>
	<g>
		<path d="M323.48,442.26H65.51c-3.18,0-5.76-2.58-5.76-5.76V107.99c0-3.18,2.58-5.76,5.76-5.76h51.38c3.18,0,5.76,2.58,5.76,5.76
			v6.42c0,3.63,2.95,6.59,6.59,6.59h130.52c3.63,0,6.59-2.96,6.59-6.59v-6.42c0-3.18,2.58-5.76,5.76-5.76h51.38
			c3.18,0,5.76,2.58,5.76,5.76v185.72c0,3.18-2.58,5.76-5.76,5.76c-3.18,0-5.76-2.58-5.76-5.76V113.75h-39.86v0.66
			c0,9.98-8.12,18.11-18.11,18.11H129.24c-9.98,0-18.11-8.12-18.11-18.11v-0.66H71.27v316.99h246.45v-70.07
			c0-3.18,2.58-5.76,5.76-5.76c3.18,0,5.76,2.58,5.76,5.76v75.83C329.24,439.69,326.66,442.26,323.48,442.26z"/>
	</g>
	<g>
		<path d="M241.24,99.89h-93.48c-3.18,0-5.76-2.58-5.76-5.76s2.58-5.76,5.76-5.76h93.48c3.18,0,5.76,2.58,5.76,5.76
			S244.42,99.89,241.24,99.89z"/>
	</g>
	<g>
		<path d="M105.58,184.58c-1.47,0-2.95-0.56-4.07-1.69l-13.94-13.94c-2.25-2.25-2.25-5.9,0-8.15c2.25-2.25,5.9-2.25,8.15,0
			l9.86,9.86l25.58-25.58c2.25-2.25,5.9-2.25,8.15,0c2.25,2.25,2.25,5.9,0,8.15l-29.65,29.65
			C108.53,184.02,107.05,184.58,105.58,184.58z"/>
	</g>
	<g>
		<path d="M297.35,159.33H152.83c-3.18,0-5.76-2.58-5.76-5.76s2.58-5.76,5.76-5.76h144.52c3.18,0,5.76,2.58,5.76,5.76
			S300.53,159.33,297.35,159.33z"/>
	</g>
	<g>
		<path d="M269.4,180.17h-86.32c-3.18,0-5.76-2.58-5.76-5.76s2.58-5.76,5.76-5.76h86.32c3.18,0,5.76,2.58,5.76,5.76
			S272.58,180.17,269.4,180.17z"/>
	</g>
	<g>
		<path d="M105.58,256.75L105.58,256.75c-1.53,0-2.99-0.61-4.07-1.69l-13.94-13.94c-2.25-2.25-2.25-5.9,0-8.15
			c2.25-2.25,5.9-2.25,8.15,0l9.86,9.86l25.58-25.58c2.25-2.25,5.9-2.25,8.15,0c2.25,2.25,2.25,5.9,0,8.15l-29.65,29.65
			C108.57,256.14,107.11,256.75,105.58,256.75z"/>
	</g>
	<g>
		<path d="M297.35,231.51H152.83c-3.18,0-5.76-2.58-5.76-5.76s2.58-5.76,5.76-5.76h144.52c3.18,0,5.76,2.58,5.76,5.76
			S300.53,231.51,297.35,231.51z"/>
	</g>
	<g>
		<path d="M269.4,252.34h-86.32c-3.18,0-5.76-2.58-5.76-5.76c0-3.18,2.58-5.76,5.76-5.76h86.32c3.18,0,5.76,2.58,5.76,5.76
			C275.16,249.76,272.58,252.34,269.4,252.34z"/>
	</g>
	<g>
		<path d="M297.35,303.68H152.83c-3.18,0-5.76-2.58-5.76-5.76s2.58-5.76,5.76-5.76h144.52c3.18,0,5.76,2.58,5.76,5.76
			S300.53,303.68,297.35,303.68z"/>
	</g>
	<g>
		<path d="M269.4,324.51h-86.32c-3.18,0-5.76-2.58-5.76-5.76s2.58-5.76,5.76-5.76h86.32c3.18,0,5.76,2.58,5.76,5.76
			S272.58,324.51,269.4,324.51z"/>
	</g>
	<g>
		<path d="M105.58,401.09L105.58,401.09c-1.53,0-2.99-0.61-4.07-1.69l-13.94-13.94c-2.25-2.25-2.25-5.9,0-8.15
			c2.25-2.25,5.9-2.25,8.15,0l9.86,9.87l25.58-25.58c2.25-2.25,5.9-2.25,8.15,0c2.25,2.25,2.25,5.9,0,8.15l-29.65,29.65
			C108.57,400.48,107.11,401.09,105.58,401.09z"/>
	</g>
	<g>
		<path d="M263.52,375.85H152.83c-3.18,0-5.76-2.58-5.76-5.76s2.58-5.76,5.76-5.76h110.69c3.18,0,5.76,2.58,5.76,5.76
			S266.7,375.85,263.52,375.85z"/>
	</g>
	<g>
		<path d="M234.64,396.68h-51.56c-3.18,0-5.76-2.58-5.76-5.76s2.58-5.76,5.76-5.76h51.56c3.18,0,5.76,2.58,5.76,5.76
			S237.82,396.68,234.64,396.68z"/>
	</g>
	<g>
		<path d="M105.58,328.92L105.58,328.92c-1.53,0-2.99-0.61-4.07-1.69L87.57,313.3c-2.25-2.25-2.25-5.9,0-8.15
			c2.25-2.25,5.9-2.25,8.15,0l9.86,9.87l25.58-25.58c2.25-2.25,5.9-2.25,8.15,0c2.25,2.25,2.25,5.9,0,8.15l-29.65,29.65
			C108.57,328.31,107.11,328.92,105.58,328.92z"/>
	</g>
	<g>
		<path d="M328.12,362.81c-0.98,0-1.97-0.25-2.87-0.77l-30.9-17.84c-1.32-0.76-2.29-2.02-2.68-3.5s-0.19-3.05,0.58-4.37
			l109.28-189.28c1.59-2.76,5.11-3.7,7.87-2.11l30.9,17.84c1.32,0.76,2.29,2.02,2.68,3.5s0.19,3.05-0.58,4.37L333.11,359.92
			C332.04,361.77,330.11,362.81,328.12,362.81z M305.09,337.09l20.93,12.08l103.52-179.31l-20.93-12.08L305.09,337.09z"/>
	</g>
	<g>
		<path d="M290.52,392.25c-0.99,0-1.98-0.25-2.88-0.77c-2.04-1.17-3.15-3.47-2.82-5.8l6.7-47.29c0.27-1.89,1.46-3.53,3.18-4.37
			c1.72-0.84,3.75-0.77,5.4,0.19l30.9,17.84c1.66,0.96,2.73,2.67,2.87,4.58c0.13,1.91-0.69,3.76-2.19,4.94l-37.6,29.45
			C293.03,391.84,291.78,392.25,290.52,392.25z M301.73,348.46l-3.5,24.68l19.63-15.37L301.73,348.46z"/>
	</g>
	<g>
		<path d="M437.4,173.52c-0.98,0-1.97-0.25-2.87-0.77l-30.9-17.84c-1.32-0.76-2.29-2.02-2.68-3.5s-0.19-3.05,0.58-4.37l14.57-25.24
			c4.21-7.29,13.57-9.8,20.87-5.59l14.42,8.33c7.29,4.21,9.8,13.57,5.59,20.87l-14.57,25.24
			C441.33,172.49,439.39,173.52,437.4,173.52z M414.37,147.81l20.93,12.08l11.69-20.25c1.02-1.76,0.39-4.11-1.38-5.13l-14.42-8.33
			c-1.76-1.02-4.11-0.39-5.13,1.38L414.37,147.81z"/>
	</g>
	<g>
		<path d="M426.82,191.85c-0.98,0-1.97-0.25-2.87-0.77l-30.9-17.84c-2.75-1.59-3.7-5.11-2.11-7.87c1.59-2.75,5.11-3.7,7.87-2.11
			l30.9,17.84c2.75,1.59,3.7,5.11,2.11,7.87C430.75,190.82,428.81,191.85,426.82,191.85z"/>
	</g>
	<g>
		<path d="M259.76,132.52H129.24c-9.98,0-18.11-8.12-18.11-18.11V73.85c0-9.98,8.12-18.11,18.11-18.11h29.89
			c2.42-17.36,17.36-30.76,35.37-30.76s32.95,13.41,35.37,30.76h29.89c9.98,0,18.11,8.12,18.11,18.11v40.57
			C277.86,124.4,269.74,132.52,259.76,132.52z M129.24,67.26c-3.63,0-6.59,2.95-6.59,6.59v40.57c0,3.63,2.96,6.59,6.59,6.59h130.52
			c3.63,0,6.59-2.96,6.59-6.59V73.85c0-3.63-2.96-6.59-6.59-6.59h-35.32c-1.55,0-3.04-0.63-4.13-1.74s-1.67-2.62-1.63-4.17
			c0.01-0.22,0.01-0.43,0.01-0.65c0-13.34-10.85-24.19-24.19-24.19S170.3,47.35,170.3,60.69c0,0.22,0,0.44,0.01,0.65
			c0.04,1.55-0.55,3.06-1.63,4.17s-2.57,1.74-4.13,1.74H129.24z"/>
	</g>
</g>
</svg>
