<?xml version="1.0" encoding="UTF-8"?>
<svg id="line" xmlns="http://www.w3.org/2000/svg" viewBox="0 0 64 64" fill="orange">
  <path d="m58.30322,49.63232l-12.56494-12.31006,5.67432-5.55957c1.86582-1.71783,1.05789-5.04702-1.37412-5.75241.00009-.00003-28.61807-9.34574-28.61807-9.34574-3.63379-1.33556-7.57318,2.45136-6.1986,6.11439-.00013-.00013,9.53942,28.03747,9.53942,28.03747.38721,1.13818,1.3252,1.98633,2.50928,2.26855,1.19971.28516,2.43555-.05518,3.30908-.91113l5.70361-5.58838,12.59424,12.33887c1.4589,1.42957,3.83364,1.42981,5.29248,0,0,0,4.1333-4.04932,4.1333-4.04932,1.46466-1.37778,1.46644-3.86487,0-5.24268Zm-1.39941,3.81396l-4.1333,4.04932c-.68799.67383-1.80664.67383-2.49365,0l-13.29395-13.02441c-.38844-.38086-1.01097-.38086-1.39941,0,0,0-6.40332,6.27393-6.40332,6.27393-.73855.77401-2.21385.4633-2.52538-.57328-.00001.00004-9.53956-28.03756-9.53956-28.03756-.34473-1.01318-.09717-2.07715.66211-2.84619.7998-.80859,1.9292-1.08008,3.02197-.72217l28.61816,9.3457c1.03451.29733,1.39322,1.68876.59567,2.42237.00004-.00001-6.40328,6.27392-6.40328,6.27392-.19189.18799-.30029.4458-.30029.71436s.1084.52637.30029.71436l13.29395,13.02441c.66926.63036.67051,1.75495,0,2.38525Z"/>
  <path d="m18.19287,10.32764c.55225,0,1-.44775,1-1v-4.32764c0-.55225-.44775-1-1-1s-1,.44775-1,1v4.32764c0,.55225.44775,1,1,1Z"/>
  <path d="m11.20703,6.88379c-.78223-1.04523-2.38161.1364-1.6064,1.19145-.00004-.00005,2.59615,3.50093,2.59615,3.50093.33082.44622.95951.5344,1.39893.20752.44336-.3291.53662-.95508.20752-1.39893l-2.59619-3.50098Z"/>
  <path d="m5.28711,14.92383l4.20068,1.33691c.10059.03174.20312.04736.30371.04736,1.10998.01638,1.38284-1.62345.30268-1.95362.00005,0-4.20063-1.33691-4.20063-1.33691-1.25691-.37336-1.85439,1.48443-.60645,1.90625Z"/>
  <path d="m10.74365,20.35352c-.16748-.52637-.73291-.81738-1.25586-.64941l-4.20068,1.3374c-.52637.16748-.81738.72998-.64941,1.25586.16612.53094.74422.81782,1.25586.64941,0,0,4.20068-1.3374,4.20068-1.3374.52637-.16748.81738-.72998.64941-1.25586Z"/>
  <path d="m12.19678,24.38867l-2.59619,3.50098c-.77267,1.05103.81882,2.23999,1.60648,1.19136-.00003.00005,2.59616-3.50093,2.59616-3.50093.77339-1.05252-.82132-2.23836-1.60645-1.19141Z"/>
  <path d="m25.64111,15.61084c.16663.5312.74409.81713,1.25635.6499,0,0,4.20117-1.33691,4.20117-1.33691.52637-.16748.81738-.72998.6499-1.25635-.16797-.52637-.73291-.81689-1.25635-.6499l-4.20117,1.33691c-.52637.16748-.81738.72998-.6499,1.25635Z"/>
  <path d="m23.38428,11.98047c.30615,0,.60791-.13965.8042-.4043l2.59619-3.50098c.77346-1.05256-.8217-2.23871-1.60648-1.19135.00003-.00005-2.59616,3.50092-2.59616,3.50092-.49841.62903.01093,1.61973.80225,1.5957Z"/>
</svg>