<?xml version="1.0" encoding="UTF-8"?>
<svg id="Layer_3" data-name="Layer 3" xmlns="http://www.w3.org/2000/svg" viewBox="0 0 1000 1000" fill="violet">
  <path d="m562.5,742.1875c-3.6621,0-7.3242-.8545-10.6812-2.5635l-162.0026-82.9773c-10.4675-5.3711-22.2321-8.2092-33.9966-8.2092h-199.5697c-81.8481,0-148.4375-66.5894-148.4375-148.4375v-187.5c0-81.8481,66.5894-148.4375,148.4375-148.4375h196.6095c11.5967,0,23.1781-2.7466,33.4778-7.9651l165.6342-83.2825c7.2632-3.6621,15.8997-3.2959,22.8271.9766s11.1389,11.8408,11.1389,19.9585v625c0,8.1482-4.2419,15.7471-11.2,19.989-3.7537,2.2888-7.9956,3.4485-12.2375,3.4485ZM156.25,210.9375c-55.9998,0-101.5625,45.5627-101.5625,101.5625v187.5c0,55.9998,45.5627,101.5625,101.5625,101.5625h199.5697c19.165,0,38.3148,4.6082,55.3589,13.3362l127.8839,65.5212V131.7749l-131.6376,66.1926c-16.7847,8.4839-35.6598,12.97-54.5654,12.97h-196.6095Z" style="stroke-width: 0px;"/>
  <path d="m625,804.6875c-47.3938,0-85.9375-38.5437-85.9375-85.9375V93.75c0-47.3938,38.5437-85.9375,85.9375-85.9375s85.9375,38.5437,85.9375,85.9375v625c0,47.3938-38.5437,85.9375-85.9375,85.9375Zm0-750c-21.5454,0-39.0625,17.5171-39.0625,39.0625v625c0,21.5454,17.5171,39.0625,39.0625,39.0625s39.0625-17.5171,39.0625-39.0625V93.75c0-21.5454-17.5171-39.0625-39.0625-39.0625Z" style="stroke-width: 0px;"/>
  <path d="m790.0391,532.196c-7.4463,0-14.74-3.5095-19.2871-10.1013-7.3853-10.6201-4.7302-25.238,5.9204-32.5928,27.3132-18.9514,43.6401-50.0793,43.6401-83.252s-16.3269-64.3005-43.6401-83.252c-10.6506-7.3547-13.3057-21.9727-5.9204-32.5928,7.3853-10.6506,22.0032-13.3362,32.5928-5.9204,39.978,27.6794,63.8428,73.2117,63.8428,121.7651s-23.8647,94.0857-63.8428,121.7651c-4.0588,2.8381-8.6975,4.1809-13.3057,4.1809Z" style="stroke-width: 0px;"/>
  <path d="m879.0588,621.2463c-6.7139,0-13.3667-2.8687-18.0054-8.4229-8.2703-9.9487-6.958-24.7192,2.9907-33.02,51.6357-43.0908,81.2683-106.3538,81.2683-173.5535s-29.6326-130.4626-81.2683-173.5535c-9.9487-8.3008-11.261-23.0713-2.9907-33.02,8.3313-9.9487,23.1323-11.2305,33.02-2.9907,62.3474,52.0325,98.114,128.418,98.114,209.5642s-35.7666,157.5317-98.114,209.5642c-4.3945,3.6621-9.7046,5.4321-15.0146,5.4321Z" style="stroke-width: 0px;"/>
  <path d="m341.9342,367.1875h-185.6842c-12.9395,0-23.4375-10.498-23.4375-23.4375s10.498-23.4375,23.4375-23.4375h185.6842c12.9395,0,23.4375,10.498,23.4375,23.4375s-10.498,23.4375-23.4375,23.4375Z" style="stroke-width: 0px;"/>
  <path d="m341.9342,492.1875h-185.6842c-12.9395,0-23.4375-10.498-23.4375-23.4375s10.498-23.4375,23.4375-23.4375h185.6842c12.9395,0,23.4375,10.498,23.4375,23.4375s-10.498,23.4375-23.4375,23.4375Z" style="stroke-width: 0px;"/>
  <path d="m250,992.1875h-62.5c-47.3938,0-85.9375-38.5437-85.9375-85.9375v-281.25c0-12.9395,10.498-23.4375,23.4375-23.4375h187.5c12.9395,0,23.4375,10.498,23.4375,23.4375v281.25c0,47.3938-38.5437,85.9375-85.9375,85.9375Zm-101.5625-343.75v257.8125c0,21.5454,17.5171,39.0625,39.0625,39.0625h62.5c21.5454,0,39.0625-17.5171,39.0625-39.0625v-257.8125h-140.625Z" style="stroke-width: 0px;"/>
  <path d="m375,773.4375h-62.5c-12.9395,0-23.4375-10.498-23.4375-23.4375v-125c0-12.9395,10.498-23.4375,23.4375-23.4375s23.4375,10.498,23.4375,23.4375v101.5625h39.0625c21.5454,0,39.0625-17.5171,39.0625-39.0625v-32.8064c0-12.9395,10.498-23.4375,23.4375-23.4375s23.4375,10.498,23.4375,23.4375v32.8064c0,47.3938-38.5437,85.9375-85.9375,85.9375Z" style="stroke-width: 0px;"/>
</svg>