<?xml version="1.0" encoding="utf-8" ?>
<svg xmlns="http://www.w3.org/2000/svg" xmlns:xlink="http://www.w3.org/1999/xlink" width="3851" height="3851" fill="#00ffaa">
	<path transform="scale(7.52148 7.52148)" d="M113.941 313.549C116.196 313.426 118.747 314.149 119.958 316.207L120.148 316.597C120.993 318.269 121.696 320.455 121.162 322.348L121.003 322.75C119.186 327.489 111.198 332.451 107.367 335.82C104.092 338.7 90.3023 352.68 86.526 352.527C83.1256 352.389 74.5974 342.976 72.125 340.284L66.791 334.46C63.6741 330.441 63.3262 323.102 69.8884 322.493C76.4553 321.884 82.323 330.894 87.102 334.869C90.5214 332.679 93.3582 329.427 96.375 326.711L104.089 320.125C107.061 317.524 109.927 314.377 113.941 313.549Z"/>
	<path transform="scale(7.52148 7.52148)" d="M115.681 202.059C118.003 201.752 121.325 204.122 122.149 206.114L122.25 206.375C124.408 211.681 119.455 215.242 115.971 218.251L98.1367 234.375C96.0353 236.371 93.9764 238.561 91.6118 240.245L91.25 240.498C83.2986 246.112 77.8663 237.071 72.4244 231.337L66.7642 225.073C62.4482 219.421 66.2993 211.545 73.6369 214.116L74 214.251C74.702 214.505 75.273 214.848 75.8921 215.259L76.25 215.5C78.3562 216.891 80.1401 219.047 81.8525 220.898L86.4075 225.417L103.856 209.989C107.273 207.067 110.963 202.674 115.681 202.059Z"/>
	<path transform="scale(7.52148 7.52148)" d="M113.656 140.033C116.652 139.905 119.254 140.389 120.949 143.218L121.147 143.598C124.695 150.272 119.477 152.694 114.809 156.63L106.865 163.657C102.283 167.872 92.3169 179.071 86.8052 180.99L86.4021 181.125C81.1415 182.938 75.3817 174.629 72.4166 171.346C69.5296 168.417 63.6524 163.548 64.5878 158.843C65.3083 155.219 68.7913 152.352 72.5528 153.173L72.875 153.249C76.4349 154.025 78.4061 156.86 80.7142 159.431L85.1881 163.969L104.768 146.663C107.671 144.093 109.875 141.259 113.656 140.033Z"/>
	<path transform="scale(7.52148 7.52148)" d="M115.469 261.096C121.893 260.3 125.956 266.191 121.607 271.523C119.255 274.407 115.975 276.944 113.25 279.501L100.791 291.049C97.8624 293.684 90.3371 301.464 85.9062 300.422L85.5 300.294C83.2599 299.608 81.6028 297.761 79.9964 296.154L71.9169 287.336C69.4636 284.648 62.2699 278.586 63.9083 274.267L64.0188 274C68.1867 263.65 76.9708 272.879 81.3546 277.196L87.7947 283.328C89.6622 282.306 91.4976 280.231 93.0973 278.791L104.491 268.755C106.854 266.635 109.408 263.562 112.175 262.066L112.455 261.922C113.498 261.363 114.288 261.202 115.469 261.096Z"/>
	<path transform="scale(7.52148 7.52148)" d="M180.627 284.034L245.57 284.021L246.905 298.522L215.125 298.499L160.728 298.537C155.271 298.568 149.227 299.199 149.199 291.523C149.167 282.628 156.887 284.072 162.65 284.059L180.627 284.034Z"/>
	<path transform="scale(7.52148 7.52148)" d="M253.603 224.48L260.377 224.306C259.758 226.101 258.215 228.166 257.253 229.81L252.053 238.992C248.748 238.628 245.22 238.858 241.89 238.861L155.688 238.747C153.08 238.463 150.772 237.12 149.506 234.8L149.003 233.856C148.515 232.736 148.571 230.668 149.079 229.571L149.236 229.25C152.119 222.871 157.754 224.472 163.522 224.473L253.603 224.48Z"/>
	<path transform="scale(7.52148 7.52148)" d="M188.415 345.514L264.856 345.551C267.246 345.564 269.989 344.568 271.14 347.168C272.575 350.408 280.294 357.431 283.091 359.888L244.062 360.122L156.13 360.059C147.853 359.352 146.679 349.639 153.505 346.084C155.678 344.952 183.869 345.519 188.415 345.514Z"/>
	<path transform="scale(7.52148 7.52148)" d="M191.127 407.994L279.264 407.987C283.051 407.974 287.24 407.614 290.985 408.042C298.227 408.869 301.927 422.511 288.141 422.47L256.23 422.481L160.125 422.452C158.463 422.443 156.523 422.588 154.972 421.932L154.625 421.771C146.897 418.321 150.664 408.796 156.628 408.16C160.393 407.759 164.463 408.033 168.259 408.024L191.127 407.994Z"/>
	<path transform="scale(7.52148 7.52148)" d="M155.874 163.586L291.375 163.529C292.461 163.573 293.209 163.649 294.107 164.311L294.375 164.513C300.023 168.703 298.427 176.457 291.303 177.717C288.965 177.626 286.419 177.821 284.065 177.824L155.207 177.778C151.613 177.594 147.979 173.298 148.878 169.656L148.955 169.375C149.824 165.883 152.276 163.867 155.874 163.586Z"/>
	<path transform="scale(7.52148 7.52148)" d="M99.5319 377.46L109.874 377.426C117.846 377.362 119.739 379.395 119.758 387.933L119.755 414.194C119.749 417.258 120.528 422.152 119.165 424.992L119.034 425.25C115.94 431.669 106.512 430.16 100.687 430.172L84.4375 430.191L76.753 430.178C69.8174 430.138 65.0648 428.854 64.6813 420.695L64.5413 387C64.5908 376.215 69.382 377.473 79.1332 377.468L99.5319 377.46ZM103.81 391.781L87.2216 391.837C84.406 391.832 81.2781 391.544 78.4959 391.876L78.5005 409.938C78.5009 411.297 78.1022 414.841 78.7556 415.918L80.3894 415.852L105.756 415.823L105.783 397.536C105.817 396.233 106.575 392.48 105.625 391.52L103.81 391.781Z"/>
	<path transform="scale(7.52148 7.52148)" d="M346.351 186.33C376.023 186.15 400.286 194.241 421.217 216.725C449.287 246.879 453.954 292.712 432.496 328.125C429.545 332.995 425.971 337.36 422.286 341.679L438.297 357.837C439.775 359.468 441.772 357.39 444.231 356.779C452.882 354.629 459.675 366.688 464.208 372.28L494.455 409.295C499.103 414.727 504.72 420.389 507.977 426.809L509.356 429.749C511.162 433.484 509.921 447.048 507.991 450.75C500.331 465.441 482.591 472.443 467.008 465.661C460.358 462.766 455.472 457.404 451.058 451.797L414.922 407.073C410.837 401.881 405.115 395.929 403.383 389.375C402.07 384.408 405.881 381.067 408.174 377.213L395.681 362.695C395.227 362.888 395.356 362.81 395.025 363.014C385.451 368.934 372.745 371.388 361.783 372.61C302.934 379.168 255.539 327.65 260.145 270.25C263.881 223.704 301.36 190.659 346.351 186.33ZM349.85 220.4C329.367 221.746 312.375 231.995 301.998 249.875L301.772 250.256C278.803 289.287 312.04 341.963 355.813 338C358.442 337.684 361.108 337.514 363.703 336.957C392.882 330.695 414.843 304.35 411.031 273.989L410.804 272.631C410.366 270.471 410.169 268.28 409.623 266.125C402.89 239.567 377.901 218.603 349.85 220.4Z"/>
	<path transform="scale(7.52148 7.52148)" d="M177.706 9.61135C195.013 9.11425 208.051 10.1596 221.041 23.4784L224.053 26.7754C225.778 28.8582 225.647 29.5091 228.385 29.5287L250.318 29.5049C257.953 29.5035 270.004 29.4411 274.875 36.686C277.38 40.4114 275.307 39.5004 280.391 39.4981L323.689 39.491C335.737 39.4947 344.534 38.8559 355.5 45.0146L357.23 46.0503C377.22 59.1413 376.388 75.798 376.381 96.8138L376.364 154.159C376.36 159.916 376.633 165.808 375.979 171.531L374.259 170.934C367.45 168.532 348.392 169.208 341.322 169.634L331.66 170.576L331.578 86.3037C331.583 82.5456 331.339 78.5403 331.786 74.8133L331.25 74.39C327.263 73.8802 322.789 74.2614 318.747 74.2577L281.229 74.2504C279.618 74.2528 277.884 73.5491 277.014 75.1071C273.538 81.3296 266.937 86.306 259.593 86.489L112.312 86.501C110.018 86.499 107.655 86.5955 105.387 86.1959L105.129 86.148C96.9407 84.701 93.0636 80.661 89.2853 73.9151L43.792 73.7408C42.1808 73.7346 40.2238 73.5288 38.663 73.919L36.8821 74.328C35.4031 79.6725 35.9577 86.4895 35.9455 91.9674L36.0744 465.21L217.625 465.26L331.651 465.279L331.565 390.501C332.946 390.59 334.244 390.991 335.604 391.19L343.205 391.995C354.306 393.112 365.545 392.722 376.387 389.998L376.397 458.592C376.397 463.633 376.861 468.812 375.574 473.704C371.193 490.357 356.538 504.214 338.968 505.317C331.864 505.763 324.59 505.476 317.47 505.478L48.1902 505.491C42.5024 505.487 36.5291 505.816 30.9688 504.377L30.5 504.254C17.3086 500.95 5.02895 489.18 2.31355 475.765C1.48277 471.661 2.00322 466.713 2.00223 462.517L2.00211 82.7077C2.00303 72.3455 1.96539 66.2513 8.1177 56.992C19.7924 39.4215 35.8317 39.5085 54.0002 39.4924L87.079 39.5419C89.6232 39.5825 90.7663 40.3633 92.125 38.0003L92.586 37.1967C95.0731 33.6155 100.485 30.2856 104.777 29.6747L105.125 29.6286C109.225 28.9976 113.604 29.477 117.759 29.4882L142.948 29.5461C144.006 28.4263 144.501 26.7528 145.469 25.4626C153.342 14.9622 164.912 9.86997 177.706 9.61135Z"/>
</svg>
